HIERARCHY
ROOT Hips
{
  OFFSET 2.26061 22.2878 23.7974
  CHANNELS 6 Xposition Yposition Zposition Zrotation Xrotation Yrotation
  JOINT LeftUpLeg
  {
    OFFSET 8.64259 1.95398 -2.38835
    CHANNELS 3 Zrotation Xrotation Yrotation
    JOINT LeftLeg
    {
      OFFSET 43.7702 0 0
      CHANNELS 3 Zrotation Xrotation Yrotation
      JOINT LeftFoot
      {
        OFFSET 40.6238 0 0
        CHANNELS 3 Zrotation Xrotation Yrotation
        JOINT LeftToeBase
        {
          OFFSET 12.7242 0 0
          CHANNELS 3 Zrotation Xrotation Yrotation
          End Site
          {
            OFFSET 0 0 0
          }
        }
      }
    }
  }
  JOINT RightUpLeg
  {
    OFFSET -8.2249 1.95398 -2.59336
    CHANNELS 3 Zrotation Xrotation Yrotation
    JOINT RightLeg
    {
      OFFSET 43.5653 0 0
      CHANNELS 3 Zrotation Xrotation Yrotation
      JOINT RightFoot
      {
        OFFSET 40.6238 0 0
        CHANNELS 3 Zrotation Xrotation Yrotation
        JOINT RightToeBase
        {
          OFFSET 12.7242 0 0
          CHANNELS 3 Zrotation Xrotation Yrotation
          End Site
          {
            OFFSET 0 0 0
          }
        }
      }
    }
  }
  JOINT Spine
  {
    OFFSET 0.165834 0.87714 6.61349
    CHANNELS 3 Zrotation Xrotation Yrotation
    JOINT Spine1
    {
      OFFSET 7.38963 1.71661e-005 0
      CHANNELS 3 Zrotation Xrotation Yrotation
      JOINT Spine2
      {
        OFFSET 11.9445 1.14441e-005 0
        CHANNELS 3 Zrotation Xrotation Yrotation
        JOINT Spine3
        {
          OFFSET 14.7254 4.19617e-005 0
          CHANNELS 3 Zrotation Xrotation Yrotation
          JOINT Spine4
          {
            OFFSET 10.9679 0 0
            CHANNELS 3 Zrotation Xrotation Yrotation
            JOINT RightShoulder
            {
              OFFSET 2.46616 -1.6653 3.69651
              CHANNELS 3 Zrotation Xrotation Yrotation
              JOINT RightArm
              {
                OFFSET 13.0012 0 0
                CHANNELS 3 Zrotation Xrotation Yrotation
                JOINT RightForeArm
                {
                  OFFSET 28.7848 1.52588e-005 0
                  CHANNELS 3 Zrotation Xrotation Yrotation
                  JOINT RightHand
                  {
                    OFFSET 26.5688 1.52588e-005 0
                    CHANNELS 3 Zrotation Xrotation Yrotation
                    End Site
                    {
                      OFFSET 0 0 0
                    }
                  }
                }
              }
            }
            JOINT LeftShoulder
            {
              OFFSET 2.38034 -1.29275 -3.7523
              CHANNELS 3 Zrotation Xrotation Yrotation
              JOINT LeftArm
              {
                OFFSET 16.3182 6.10351e-005 0
                CHANNELS 3 Zrotation Xrotation Yrotation
                JOINT LeftForeArm
                {
                  OFFSET 27.0901 0 0
                  CHANNELS 3 Zrotation Xrotation Yrotation
                  JOINT LeftHand
                  {
                    OFFSET 24.5451 1.52588e-005 0
                    CHANNELS 3 Zrotation Xrotation Yrotation
                    End Site
                    {
                      OFFSET 0 0 0
                    }
                  }
                }
              }
            }
            JOINT Neck
            {
              OFFSET 5.0226 -0.0266342 0
              CHANNELS 3 Zrotation Xrotation Yrotation
              JOINT Head
              {
                OFFSET 6.69363 2.86102e-005 0
                CHANNELS 3 Zrotation Xrotation Yrotation
                End Site
                {
                  OFFSET 0 0 0
                }
              }
            }
          }
        }
      }
    }
  }
}
MOTION
Frames:	6
Frame Time:	0.0416667
-288.613 88.3394 -276.321 97.9864 -41.145 102.57 -172.243 21.9793 111.591 -80.6864 -55.8138 1.30101 14.6242 -21.2177 -79.8776 -5.5653 10.6167 -89.6658 175.927 23.2134 101.125 -58.8293 -1.75037 1.08073 5.1065 9.63231 18.2991 96.995 6.38895 4.52196 -0.424513 7.30523 -90.8867 12.2518 -1.26382 -1.62826 0.580535 -1.33423 -1.57108 -21.9484 -0.716152 -1.93271 -1.93576 -0.716127 -1.93271 105.206 -58.5494 -77.6953 3.82433 -7.61957 -38.2599 21.4991 -2.07301 -66.4537 -20.189 9.63773 -62.7148 -96.7125 -49.0732 68.4909 -37.745 24.3283 32.1558 11.0086 -6.0703 -90.509 26.8632 0.630874 -1.60442 -8.02602 0.891393 -0.634731 13.4512 1.61559 4.5808 
-286.385 88.9295 -272.944 94.8413 -30.697 98.8517 175.408 24.9432 101.217 -64.9643 -48.4933 13.5734 16.7396 -20.2156 -21.336 59.5386 -7.29037 -119.22 170.788 18.271 96.924 -58.89 9.26742 9.16009 20.271 7.38038 10.8851 90.1465 7.67366 8.53778 -1.32471 8.76625 -91.1964 9.30726 -3.17888 -2.13081 -2.36113 -3.26955 -1.98878 -24.9032 -2.39176 -2.98756 -4.89061 -2.39176 -2.98757 94.4531 -49.787 -93.95 16.0095 -1.02176 -11.5251 29.6284 -12.0756 -96.1353 -17.2131 9.25435 -74.0286 -99.7067 -53.2089 65.5646 -27.2635 17.7829 21.4362 9.23241 -1.45342 -81.7889 30.2401 1.38369 0.683278 11.2063 0.496342 5.42718 7.74919 -0.52082 0.692909 
-281.145 88.7777 -267.372 93.1656 -41.4376 95.5852 -179.276 39.1354 93.9067 -71.8116 11.5113 2.69126 53.1028 -3.17798 -4.65315 45.644 14.0932 1.41071 176.722 13.8346 99.1827 -55.4999 -0.0671894 -1.27036 26.536 9.48209 12.232 90.571 7.60049 7.58407 0.268559 8.24802 -90.6468 10.383 0.238236 -1.31122 -1.28979 0.180323 -1.32044 -23.8119 0.62117 -1.17912 -3.79927 0.621171 -1.17914 95.9031 -47.2423 -92.0707 23.7299 -2.0352 5.25983 56.9834 -25.2669 -100.262 -15.6841 -0.0302391 -92.66 -97.5392 -52.4842 68.3941 -31.9296 19.0957 32.7545 5.14533 -3.2469 -82.7681 30.8995 1.0807 -0.46263 9.43752 -1.91589 6.13848 6.87363 -3.2442 -1.85369 
-271.279 91.5314 -257.355 84.8057 -51.1381 84.9485 -172.7 41.2089 90.779 -42.7869 15.9611 -1.71159 50.1581 -6.23556 -0.752337 37.9309 7.82542 14.4105 178.767 2.92924 93.5856 -40.6823 -1.03065 -6.43083 33.5739 6.2505 7.39887 71.4879 11.4623 33.9343 1.55152 7.55905 -89.855 11.766 3.15356 -0.0540045 0.099057 3.14808 -0.192893 -22.4666 3.02387 0.897169 -2.45393 3.02386 0.89717 95.573 -44.5931 -92.9792 26.5768 -6.94754 4.16495 -85.4181 8.50448 -93.4595 28.0669 -17.6399 -52.3726 -94.6857 -50.1018 71.7991 -37.0497 17.802 40.7656 6.97103 -3.34348 -85.0759 32.1844 1.16344 -0.338394 10.0851 -3.74248 7.00851 5.52169 -5.31425 -3.12756 
-259.453 93.7313 -245.564 82.6034 -47.7157 82.5129 -175.651 36.1151 87.9543 -18.7557 22.174 -1.22469 46.7158 -8.45807 -0.877394 41.9284 11.5799 13.7674 175.669 -4.33777 90.7441 -38.4239 -14.0692 -5.11032 42.6243 4.73566 4.5034 36.6555 0.377051 -3.68653 1.42447 7.20088 -89.6213 12.4704 3.01041 0.41012 0.802906 3.02556 0.277104 -21.756 2.74788 1.29656 -1.74338 2.74789 1.29656 96.0883 -45.2843 -92.0298 27.1207 -17.8684 6.88826 -48.6503 1.31789 -99.4013 -9.94619 0.298097 -10.0468 -93.5901 -47.634 72.7279 -39.9872 15.5646 45.5064 6.07756 -3.98907 -87.6148 31.9593 1.10304 -0.507342 10.3446 -4.65104 6.51381 4.4975 -6.06293 -2.77925 
-249.066 93.7692 -235.089 83.5199 -48.4036 85.763 -172.621 33.7699 88.4955 -20.3426 17.5497 -3.06195 47.366 -8.35224 -2.1739 40.3267 9.94633 12.1826 178.481 1.10444 93.6445 -55.049 -4.69668 -4.92538 41.1369 4.10349 4.1131 33.9475 0.374657 -6.75159 1.44324 7.13092 -89.818 12.6166 2.95374 0.0202021 0.949063 2.95175 -0.109938 -21.6113 2.81099 0.9077 -1.59871 2.811 0.907699 96.0483 -46.1061 -91.985 28.4193 -25.0096 10.9486 -25.0718 -2.06475 -94.4666 -23.08 -0.0105069 -4.11761 -92.7795 -48.5191 74.1976 -38.6987 13.6546 44.9762 8.62312 -4.23567 -89.8291 30.7564 0.918273 -0.977697 10.2352 -3.74348 6.60902 4.89918 -5.30131 -4.05641 
